<?xml version="1.0" standalone="no"?>
<!DOCTYPE svg PUBLIC "-//W3C//DTD SVG 20010904//EN"
 "http://www.w3.org/TR/2001/REC-SVG-20010904/DTD/svg10.dtd">
<svg version="1.0" xmlns="http://www.w3.org/2000/svg"
 width="139.000000pt" height="136.000000pt" viewBox="0 0 139.000000 136.000000"
 preserveAspectRatio="xMidYMid meet">
<metadata>
Created by potrace 1.15, written by Peter Selinger 2001-2017
</metadata>
<g transform="translate(0.000000,136.000000) scale(0.100000,-0.100000)"
fill="#000000" stroke="none">
<path d="M545 1344 c-263 -58 -467 -267 -521 -535 -68 -336 141 -673 481 -775
84 -26 278 -26 359 -1 235 72 401 238 473 473 25 82 25 275 -1 359 -69 226
-230 390 -456 465 -88 28 -241 35 -335 14z m518 -375 c51 -14 104 -63 117
-107 14 -53 15 -52 -45 -52 -49 0 -57 3 -65 24 -18 50 -91 72 -143 45 -69 -37
-44 -77 66 -109 161 -46 198 -77 205 -170 4 -52 1 -66 -21 -99 -32 -48 -84
-73 -168 -79 -107 -7 -183 27 -219 98 -32 63 -28 77 27 85 26 4 49 3 50 -2 11
-31 47 -75 71 -84 36 -14 108 -5 132 16 27 25 26 71 -2 89 -13 8 -52 22 -87
31 -135 35 -191 83 -191 167 0 79 32 119 120 151 26 9 113 7 153 -4z m-434
-256 c57 -142 105 -264 108 -270 4 -10 -11 -13 -55 -13 l-61 0 -22 60 -22 61
-105 -3 -105 -3 -20 -57 -21 -58 -59 0 c-43 0 -58 3 -54 13 3 6 49 124 102
261 53 137 98 253 101 258 3 4 29 8 58 8 l52 0 103 -257z"/>
</g>
</svg>
